# AST/ASF file generated using VICON BodyLanguage
# -----------------------------------------------
:version 1.10
:name VICON
:units
  mass 1.0
  length 0.45
  angle deg
:documentation
   .ast/.asf automatically generated from VICON data using
   VICON BodyBuilder and BodyLanguage model FoxedUp or BRILLIANT.MOD
:root
   order TX TY TZ RX RY RZ
   axis XYZ
   position 0 0 0  
   orientation 0 0 0 
:bonedata
  begin
     id 1 
     name lhipjoint
     direction 0.521452 -0.77106 0.36545 
     length 2.0933 
     axis 0 0 0  XYZ
  end
  begin
     id 2 
     name lfemur
     direction 0.34202 -0.939693 0  
     length 6.83441  
     axis 0 0 20  XYZ
    dof rx ry rz
    limits (-160.0 20.0)
           (-70.0 70.0)
           (-60.0 70.0)
  end
  begin
     id 3 
     name ltibia
     direction 0.34202 -0.939693 0   
     length 7.28749   
     axis 0 0 20   XYZ
    dof rx
    limits (-10.0 170.0)
  end
  begin
     id 4 
     name lfoot
     direction 0.100608 -0.276418 0.955757   
     length 1.52195   
     axis -90 7.62852e-016 20   XYZ
    dof rx rz
    limits (-45.0 90.0)
           (-70.0 20.0)
  end
  begin
     id 5 
     name ltoes
     direction 1.53558e-011 -4.21907e-011 1   
     length 0.770459   
     axis -90 7.62852e-016 20   XYZ
    dof rx
    limits (-90.0 20.0)
  end
  begin
     id 6 
     name rhipjoint
     direction -0.488071 -0.788702 0.373812   
     length 2.04648  
     axis 0 0 0  XYZ 
  end
  begin
     id 7 
     name rfemur
     direction -0.34202 -0.939693 0   
     length 6.92583   
     axis 0 0 -20   XYZ
    dof rx ry rz
    limits (-160.0 20.0)
           (-70.0 70.0)
           (-70.0 60.0)
  end
  begin
     id 8 
     name rtibia
     direction -0.34202 -0.939693 0   
     length 7.41043   
     axis 0 0 -20   XYZ
    dof rx
    limits (-10.0 170.0)
 end
 begin
     id 9 
     name rfoot
     direction -0.0784433 -0.215521 0.973343   
     length 1.67708  
     axis -90 -7.62852e-016 -20   XYZ
    dof rx rz
    limits (-45.0 90.0)
           (-20.0 70.0)
  end
  begin
     id 10 
     name rtoes
     direction -1.53551e-011 -4.21842e-011 1   
     length 0.849787   
     axis -90 -7.62852e-016 -20   XYZ
    dof rx
    limits (-90.0 20.0)
  end
  begin
     id 11 
     name lowerback
     direction -0.0122332 0.997575 -0.0685192   
     length 1.98724   
     axis 0 0 0   XYZ
    dof rx ry rz
    limits (-20.0 45.0)
           (-30.0 30.0)
           (-30.0 30.0)
  end
  begin
     id 12 
     name upperback
     direction 0.0182347 0.999724 -0.0148421   
     length 1.99029   
     axis 0 0 0   XYZ
    dof rx ry rz
    limits (-20.0 45.0)
           (-30.0 30.0)
           (-30.0 30.0)
  end
  begin
     id 13 
     name thorax
     direction 0.0242908 0.99956 0.0170184   
     length 1.99573   
     axis 0 0 0   XYZ
    dof rx ry rz
    limits (-20.0 45.0)
           (-30.0 30.0)
           (-30.0 30.0)
  end
  begin
     id 14 
     name lowerneck
     direction 0.0654488 0.985533 0.156338   
     length 1.4285   
     axis 0 0 0   XYZ
    dof rx ry rz
    limits (-20.0 45.0)
           (-30.0 30.0)
           (-30.0 30.0)
  end
  begin
     id 15 
     name upperneck
     direction -0.02953 0.998556 -0.0448842   
     length 1.44709   
     axis 0 0 0   XYZ
    dof rx ry rz
    limits (-20.0 45.0)
           (-30.0 30.0)
           (-30.0 30.0)
  end
  begin
     id 16
     name head
     direction -0.0155588 0.999386 -0.0314063  
     length 1.44689  
     axis 0 0 0   XYZ
    dof rx ry rz
    limits (-20.0 45.0)
           (-30.0 30.0)
           (-30.0 30.0)
  end
  begin
     id 17 
     name lclavicle
     direction 0.968229 0.236071 -0.0824755  
     length 3.60593  
     axis 0 0 0   XYZ
    dof ry rz
    limits (-20.0 10.0)
           (0.0 20.0)
  end
  begin
     id 18 
     name lhumerus
     direction 1 -4.48968e-011 7.8138e-029   
     length 5.06035   
     axis 180 -30 -90   XYZ
    dof rx ry rz
    limits (-60.0 90.0)
           (-90.0 90.0)
           (-90.0 90.0)
  end
  begin
     id 19
     name lradius
     direction 1 -4.48967e-011 9.02887e-028   
     length 3.1478   
     axis 180 -30 -90   XYZ
    dof rx
    limits (-10.0 170.0)
  end
  begin
     id 20
     name lwrist
     direction 1 -4.48961e-011 7.20928e-028   
     length 1.5739   
     axis -5.52449e-016 90 90   XYZ
    dof ry
    limits (-180.0 0.0)
 end
  begin
     id 21 
     name lhand
     direction 1 -4.48972e-011 1.44186e-027   
     length 0.606747   
     axis -9.20027e-016 90 90   XYZ
    dof rx rz
    limits (-90.0 90.0)
           (-45.0 45.0)
  end
  begin
     id 22 
     name lfingers
     direction 1 -4.48943e-011 2.88371e-027   
     length 0.489175   
     axis -1.84005e-015 90 90   XYZ
    dof rx
    limits (0.0 90.0)
  end
  begin
     id 23
     name lthumb
     direction 0.707107 -6.34917e-011 0.707107   
     length 0.70236   
     axis -90 45 2.85299e-015   XYZ
    dof rx rz
    limits (-45.0 45.0)
           (-45.0 45.0)
  end
  begin
     id 24 
     name rclavicle
     direction -0.978165 0.207816 0.0022268   
     length 3.35425  
     axis 0 0 0   XYZ 
    dof ry rz
    limits (-10.0 20.0)
           (-20.0 0.0)
  end
  begin
     id 25 
     name rhumerus
     direction -1 -4.48964e-011 -4.02159e-027  
     length 5.12273   
     axis 180 30 90   XYZ
    dof rx ry rz
    limits (-90.0 60.0)
           (-90.0 90.0)
           (-90.0 90.0)
  end
  begin
     id 26 
     name rradius
     direction -1 -4.48966e-011 1.62746e-027   
     length 3.422   
     axis 180 30 90   XYZ
    dof rx
    limits (-10.0 170.0)
  end
  begin
     id 27 
     name rwrist
     direction -1 -4.4896e-011 7.20928e-028   
     length 1.711   
     axis -5.52449e-016 -90 -90   XYZ
    dof ry
    limits (-180.0 0.0)
  end
  begin
     id 28
     name rhand
     direction -1 -4.48979e-011 1.44186e-027   
     length 0.704599   
     axis -9.20027e-016 -90 -90   XYZ
    dof rx rz
    limits (-90.0 90.0)
           (-45.0 45.0)
  end
  begin
     id 29
     name rfingers
     direction -1 -4.48962e-011 2.88371e-027   
     length 0.568066   
     axis -1.84005e-015 -90 -90   XYZ
    dof rx
    limits (0.0 90.0)
  end
  begin
     id 30
     name rthumb
     direction -0.707107 -6.34949e-011 0.707107   
     length 0.815633   
     axis -90 -45 -2.85299e-015   XYZ
    dof rx rz
    limits (-45.0 45.0)
           (-45.0 45.0)
  end
:hierarchy
  begin
    root lhipjoint rhipjoint lowerback
    lhipjoint lfemur
    lfemur ltibia
    ltibia lfoot
    lfoot ltoes
    rhipjoint rfemur
    rfemur rtibia
    rtibia rfoot
    rfoot rtoes
    lowerback upperback
    upperback thorax
    thorax lowerneck lclavicle rclavicle
    lowerneck upperneck
    upperneck head
    lclavicle lhumerus
    lhumerus lradius
    lradius lwrist
    lwrist lhand lthumb
    lhand lfingers
    rclavicle rhumerus
    rhumerus rradius
    rradius rwrist
    rwrist rhand rthumb
    rhand rfingers
  end

#!OML:ASF E:\id_vita\Project 1\Capture day 1\Session 1\Male1.ASF
:FULLY-SPECIFIED
:DEGREES
848
root 2.30793 27.5941 -1.24555 -66.317 87.2349 -85.6238
lowerback 3.66842 3.39174 -2.26583
upperback 8.02665 4.84475 -0.635577
thorax 6.17178 2.40703 0.691332
lowerneck -2.31716 9.1142 12.7525
upperneck -16.8626 11.01 -19.3857
head -2.59028 6.08792 -8.18388
rclavicle 9.69075e-015 1.43125e-014
rhumerus 46.6696 14.7234 -62.5476
rradius 111.993
rwrist -0.278227
rhand -30.3488 32.3853
rfingers 7.12502
rthumb -3.65429 2.43686
lclavicle 9.69075e-015 1.43125e-014
lhumerus 41.0696 -6.86292 64.9901
lradius 128.536
lwrist 0.762312
lhand -26.0814 46.5084
lfingers 7.12502
lthumb 0.467082 76.4877
rfemur -8.60685 -3.6086 19.6422
rtibia 11.771
rfoot -12.7429 -10.1681
rtoes -10.2001
lfemur -35.3254 0.719587 -18.1509
ltibia 30.2218
lfoot -16.236 -5.74993
ltoes -5.89917
849
root 2.30755 27.5952 -1.23993 -64.647 87.1438 -84.0255
lowerback 3.55079 3.40291 -2.2946
upperback 8.04578 4.86226 -0.605879
thorax 6.25408 2.41097 0.74716
lowerneck -2.25914 9.15071 12.7143
upperneck -16.9917 11.0541 -19.431
head -2.62903 6.12209 -8.20017
rclavicle 5.31252e-014 -3.85642e-014
rhumerus 46.7787 14.7314 -62.5268
rradius 112.076
rwrist -0.222608
rhand -30.3205 32.333
rfingers 7.12502
rthumb -3.62692 2.38414
lclavicle 5.31252e-014 -3.85642e-014
lhumerus 41.1275 -6.79686 64.9766
lradius 128.499
lwrist 0.710547
lhand -26.043 46.4948
lfingers 7.12502
lthumb 0.504198 76.474
rfemur -8.68363 -3.41673 19.7257
rtibia 11.7119
rfoot -12.7161 -10.2136
rtoes -9.71373
lfemur -35.4134 0.791642 -18.0617
ltibia 30.2439
lfoot -16.2538 -5.63694
ltoes -6.53146
850
root 2.30913 27.596 -1.23519 -65.4771 87.0809 -84.8235
lowerback 3.54173 3.37601 -2.27497
upperback 8.10893 4.83002 -0.564039
thorax 6.32586 2.39468 0.7827
lowerneck -2.68024 9.07745 12.8377
upperneck -16.5812 10.9817 -18.9462
head -2.48554 6.02144 -8.02449
rclavicle 2.73329e-014 -1.45113e-014
rhumerus 46.9218 14.7399 -62.4677
rradius 112.142
rwrist -0.143504
rhand -30.2733 32.2414
rfingers 7.12502
rthumb -3.58137 2.29169
lclavicle 2.73329e-014 -1.45113e-014
lhumerus 41.1712 -6.77631 64.9196
lradius 128.497
lwrist 0.447845
lhand -25.7527 46.7892
lfingers 7.12502
lthumb 0.784559 76.7675
rfemur -8.61458 -3.35053 19.8322
rtibia 11.6527
rfoot -12.7764 -10.2727
rtoes -9.23971
lfemur -35.3764 0.722394 -17.9381
ltibia 30.2701
lfoot -16.2607 -5.54316
ltoes -7.00648
851
root 2.30993 27.5956 -1.23191 -65.4185 87.0674 -84.7531
lowerback 3.51073 3.37388 -2.30367
upperback 8.16921 4.83217 -0.539413
thorax 6.40422 2.39281 0.828913
lowerneck -2.45897 9.21001 12.6046
upperneck -17.0212 11.1182 -19.4599
head -2.5986 6.15943 -8.17785
rclavicle 4.01048e-014 -2.18663e-015
rhumerus 47.0042 14.6743 -62.4042
rradius 112.113
rwrist -0.171324
rhand -30.3186 32.3121
rfingers 7.12502
rthumb -3.62508 2.36314
lclavicle 4.01048e-014 -2.18663e-015
lhumerus 41.2262 -6.83191 64.8642
lradius 128.522
lwrist 0.0190404
lhand -25.5334 47.3511
lfingers 7.12502
lthumb 0.996361 77.3285
rfemur -8.57504 -3.40455 19.8655
rtibia 11.6005
rfoot -12.7214 -10.2851
rtoes -9.81136
lfemur -35.3537 0.568273 -17.8504
ltibia 30.2947
lfoot -16.2763 -5.38975
ltoes -6.81653
852
root 2.31092 27.5944 -1.22954 -64.3397 87.0925 -83.7077
lowerback 3.4088 3.39242 -2.36547
upperback 8.21286 4.86422 -0.548509
thorax 6.50496 2.40375 0.863154
lowerneck -2.87118 9.13892 12.7469
upperneck -16.6202 11.0371 -19.1346
head -2.44586 6.06332 -8.05715
rclavicle 5.12864e-014 -7.65321e-015
rhumerus 47.059 14.5629 -62.3328
rradius 112.052
rwrist -0.351035
rhand -30.3496 32.2646
rfingers 7.12502
rthumb -3.65504 2.31618
lclavicle 5.12864e-014 -7.65321e-015
lhumerus 41.3456 -6.8036 64.8724
lradius 128.471
lwrist -0.0550491
lhand -25.6048 47.2783
lfingers 7.12502
lthumb 0.927443 77.256
rfemur -8.58755 -3.47073 19.8305
rtibia 11.5466
rfoot -12.6007 -10.3067
rtoes -10.5991
lfemur -35.3851 0.536583 -17.8698
ltibia 30.3169
lfoot -16.3086 -5.33319
ltoes -6.61857
853
root 2.31263 27.5931 -1.22804 -63.6218 87.1155 -82.9613
lowerback 3.44731 3.40476 -2.39539
upperback 8.192 4.87953 -0.575371
thorax 6.46019 2.41114 0.848372
lowerneck -2.96401 9.13635 12.7922
upperneck -16.4439 11.0414 -19.0416
head -2.38369 6.04742 -8.01994
rclavicle 4.46272e-014 -1.19271e-015
rhumerus 46.9497 14.5616 -62.3459
rradius 112.068
rwrist -0.436449
rhand -30.3506 32.1968
rfingers 7.12502
rthumb -3.656 2.24841
lclavicle 4.46272e-014 -1.19271e-015
lhumerus 41.3372 -6.77243 64.9011
lradius 128.41
lwrist 0.113548
lhand -25.6342 46.9631
lfingers 7.12502
lthumb 0.899047 76.9409
rfemur -8.54068 -3.50563 19.7994
rtibia 11.5296
rfoot -12.6147 -10.2812
rtoes -10.4175
lfemur -35.3482 0.650204 -17.9453
ltibia 30.3226
lfoot -16.345 -5.39526
ltoes -6.83598
854
root 2.31326 27.5923 -1.22747 -61.4559 87.1668 -80.7976
lowerback 3.40942 3.41479 -2.43884
upperback 8.22316 4.90125 -0.648444
thorax 6.51842 2.42148 0.801108
lowerneck -2.88657 9.21961 12.8246
upperneck -16.6089 11.1335 -19.3049
head -2.4052 6.11597 -8.11581
rclavicle 7.20594e-015 -1.17283e-014
rhumerus 46.9156 14.5404 -62.4081
rradius 112.029
rwrist -0.405361
rhand -30.401 32.2173
rfingers 7.12502
rthumb -3.70472 2.26978
lclavicle 7.20594e-015 -1.17283e-014
lhumerus 41.394 -6.73309 64.8369
lradius 128.387
lwrist 0.141259
lhand -25.5026 47.1723
lfingers 7.12502
lthumb 1.02612 77.1496
rfemur -8.57322 -3.56993 19.7104
rtibia 11.5719
rfoot -12.6452 -10.1748
rtoes -10.2708
lfemur -35.3355 0.725464 -18.0585
ltibia 30.305
lfoot -16.3504 -5.32659
ltoes -7.52835
